<svg width="854" height="591" viewBox="0 0 854 591" fill="none" xmlns="http://www.w3.org/2000/svg">
<path d="M854 0H0V591H854V0Z" fill="#F7F9F9"/>
<path d="M623.275 280.086C623.833 280.086 624.284 279.86 624.284 279.582C624.284 279.304 623.833 279.078 623.275 279.078C622.718 279.078 622.267 279.304 622.267 279.582C622.267 279.86 622.718 280.086 623.275 280.086Z" fill="#F89938"/>
<path d="M245.645 257.234V329.32H229V257.234H245.645ZM240.433 257.234H272.715V272.357H240.433V257.234ZM240.433 286.471H271.706V300.418H240.433V286.471Z" fill="#26A349"/>
<path d="M342.827 292.52C345.181 288.824 348.376 285.967 352.579 283.783C356.782 281.598 361.322 280.758 366.534 280.758C371.746 280.758 376.286 281.766 380.321 283.951C384.356 285.967 387.551 288.992 389.905 292.689C392.259 296.385 393.436 300.754 393.436 305.795C393.436 310.668 392.259 315.037 389.905 318.734C387.551 322.43 384.356 325.287 380.321 327.471C376.286 329.488 371.578 330.496 366.366 330.496C361.154 330.496 356.614 329.488 352.579 327.471C348.544 325.455 345.181 322.598 342.827 318.734C340.473 315.037 339.296 310.668 339.296 305.795C339.296 300.586 340.473 296.217 342.827 292.52ZM356.782 311.844C357.791 313.693 359.136 315.037 360.818 316.045C362.499 317.053 364.348 317.557 366.366 317.557C368.384 317.557 370.233 317.053 371.914 316.045C373.596 315.037 374.941 313.693 375.782 311.844C376.79 309.996 377.295 307.979 377.295 305.459C377.295 303.107 376.79 301.09 375.782 299.242C374.773 297.393 373.596 296.049 371.914 295.041C370.233 294.033 368.384 293.529 366.366 293.529C364.348 293.529 362.499 294.033 360.818 295.041C359.136 296.049 357.791 297.393 356.782 299.242C355.774 300.922 355.269 303.107 355.269 305.627C355.269 307.979 355.774 310.164 356.782 311.844Z" fill="#26A349"/>
<path d="M403.187 292.184C405.373 288.488 408.063 285.799 411.426 283.783C414.789 281.934 418.487 280.926 422.355 280.926C425.381 280.926 428.071 281.43 430.593 282.607C433.115 283.783 435.301 285.295 437.15 287.48C439 289.664 440.513 292.184 441.522 295.209C442.531 298.234 443.035 301.762 443.035 305.627C443.035 309.492 442.531 312.852 441.522 316.045C440.513 319.07 439 321.758 437.15 323.775C435.301 325.959 433.115 327.471 430.593 328.648C428.071 329.824 425.381 330.328 422.355 330.328C418.487 330.328 414.789 329.32 411.426 327.471C408.063 325.623 405.205 322.766 403.187 319.07C401.001 315.373 399.993 310.836 399.993 305.627C399.993 300.25 401.001 295.881 403.187 292.184ZM417.983 312.18C418.992 314.029 420.337 315.373 422.186 316.381C424.036 317.389 425.885 317.893 427.903 317.893C429.08 317.893 430.425 317.557 431.77 317.053C433.115 316.549 434.292 315.709 435.301 314.701C436.31 313.693 437.15 312.348 437.823 310.836C438.495 309.324 438.832 307.643 438.832 305.627C438.832 303.779 438.495 302.098 437.823 300.586C437.15 299.074 436.31 297.898 435.301 296.721C434.292 295.713 433.115 294.873 431.77 294.369C430.425 293.865 429.08 293.529 427.903 293.529C425.885 293.529 423.868 294.033 422.186 295.041C420.505 296.049 419.16 297.393 417.983 299.242C416.974 301.09 416.47 303.275 416.47 305.627C416.47 307.98 416.806 310.332 417.983 312.18ZM454.3 249V329.32H438.664V249H454.3Z" fill="#26A349"/>
<path d="M492.635 281.934V294.873H460.857V281.934H492.635ZM484.228 265.467V329.32H469.096V265.467H484.228Z" fill="#26A349"/>
<path d="M516.342 315.541C516.846 316.885 517.519 317.725 518.528 318.398C519.536 319.07 520.882 319.406 522.395 319.406C524.076 319.406 525.421 319.07 526.766 318.398C527.943 317.725 528.952 316.717 529.625 315.373C530.297 314.029 530.633 312.516 530.633 310.668V281.934H546.27V329.32H530.633V322.262C529.12 324.783 527.271 326.799 524.917 328.311C522.563 329.824 519.536 330.496 516.174 330.496C512.307 330.496 509.112 329.824 506.59 328.311C504.068 326.799 502.219 324.783 501.042 322.094C499.865 319.406 499.192 316.213 499.192 312.348V281.934H515.669V310.836C515.501 312.684 515.837 314.197 516.342 315.541Z" fill="#26A349"/>
<path d="M573.844 329.32H558.375V281.934H573.844V329.32ZM584.941 296.217C583.932 295.713 582.923 295.545 581.41 295.545C579.897 295.545 578.72 295.881 577.543 296.721C576.366 297.561 575.525 298.738 574.853 300.25C574.18 301.762 573.844 303.779 573.844 305.963L570.145 300.418C570.145 296.721 570.817 293.193 572.331 290.336C573.844 287.479 575.861 285.127 578.215 283.279C580.569 281.598 583.091 280.758 585.781 280.758C587.463 280.758 589.144 281.094 590.825 281.934C592.507 282.775 593.684 283.615 594.356 284.623L587.631 298.066C586.622 297.393 585.781 296.721 584.941 296.217Z" fill="#26A349"/>
<path d="M609.152 327.303C605.117 325.287 602.091 322.43 599.737 318.734C597.551 315.037 596.374 310.668 596.374 305.627C596.374 301.762 597.047 298.402 598.224 295.209C599.4 292.184 601.25 289.496 603.604 287.48C605.958 285.295 608.816 283.783 612.011 282.607C615.373 281.43 619.072 280.926 623.107 280.926C628.656 280.926 633.195 281.934 637.063 283.783C640.762 285.631 643.788 288.488 645.806 292.016C647.823 295.545 648.832 299.914 648.832 304.955C648.832 305.795 648.832 306.467 648.832 307.139C648.832 307.811 648.832 308.484 648.664 308.988H605.285V300.25H634.541L630.842 304.955C631.178 304.283 631.514 303.779 631.682 303.107C631.85 302.434 632.019 301.93 632.019 301.426C632.019 299.242 631.682 297.561 631.01 296.049C630.337 294.537 629.328 293.361 627.815 292.521C626.47 291.68 624.789 291.344 622.939 291.344C621.09 291.344 619.577 291.68 618.232 292.184C616.886 292.689 615.709 293.697 614.869 294.873C614.028 296.049 613.356 297.561 612.851 299.242C612.347 300.922 612.179 303.107 612.179 305.459C612.179 308.316 612.515 310.836 613.356 312.852C614.196 314.869 615.373 316.381 617.055 317.557C618.736 318.734 620.754 319.238 623.107 319.238C625.798 319.238 628.151 318.734 630.169 317.725C632.187 316.717 633.7 315.205 634.877 313.02L648.832 316.381C646.31 321.086 642.947 324.615 638.744 326.967C634.541 329.32 629.497 330.496 623.444 330.496C618.063 330.328 613.187 329.32 609.152 327.303Z" fill="#26A349"/>
<path d="M326.854 291.848C326.854 292.521 326.35 293.193 325.509 293.361C324.164 293.865 322.819 293.865 321.642 293.361C320.633 293.865 319.457 293.865 318.28 293.193C317.943 292.857 317.607 292.521 317.271 292.184C315.926 292.016 314.749 291.176 314.244 289.664C314.076 289.16 314.076 288.824 314.244 288.32C314.244 288.152 314.076 287.984 314.076 287.816C313.908 287.816 313.572 287.648 313.404 287.48C312.563 286.975 312.227 286.135 312.227 285.295C312.227 284.287 312.731 283.615 313.572 283.111C311.722 282.775 309.873 282.607 308.023 282.607C294.741 282.607 283.812 293.361 283.812 306.803C283.812 320.078 294.573 331 308.023 331C321.306 331 332.235 320.246 332.235 306.803C332.235 301.09 330.217 295.881 326.854 291.848Z" fill="#F89938"/>
<path d="M295.581 284.623L294.572 279.246L290.201 281.598C289.36 281.934 288.688 282.775 288.351 283.615C287.342 285.799 288.183 288.488 290.201 289.496C292.218 290.504 294.404 289.664 295.413 287.48C295.581 286.471 295.749 285.463 295.581 284.623Z" fill="#8CC751"/>
<path d="M281.962 286.975L277.255 291.848L282.803 294.873C283.812 295.377 284.989 295.713 286.166 295.377C289.024 294.873 291.042 292.184 290.705 289.328C290.369 286.471 287.847 284.791 284.989 285.295C283.98 285.463 282.803 286.135 281.962 286.975Z" fill="#26A349"/>
<path d="M293.227 296.217C293.227 294.201 294.909 292.689 297.094 292.689C297.094 292.689 298.103 292.857 298.103 291.848C298.103 290.84 297.094 291.008 297.094 291.008C293.732 291.008 291.21 293.361 291.21 296.385C291.21 296.385 291.21 297.225 292.219 297.225C293.227 297.057 293.227 296.217 293.227 296.217Z" fill="#F9F9FA"/>
</svg>
