<svg xmlns="http://www.w3.org/2000/svg" viewBox="0 0 24.46 24.91"><defs><style>.cls-1{fill:none;stroke:#41b871;stroke-miterlimit:10;stroke-width:3px;}.cls-2{fill:#f7f9f9;}</style></defs><g id="Layer_2" data-name="Layer 2"><g id="Layer_1-2" data-name="Layer 1"><g id="Layer_2-2" data-name="Layer 2"><g id="Layer_1-2-2" data-name="Layer 1-2"><line id="line8" class="cls-1" x1="7.62" y1="18.77" x2="17.34" y2="6.92"/><path id="path10" class="cls-2" d="M11.55,5.69v6.68H10.31L7.05,8.31v4.06H5.55V5.69H6.8l3.25,4.06V5.69Z"/><path id="path12" class="cls-2" d="M12.89,16a3.55,3.55,0,0,1,3.67-3.65,3.4,3.4,0,0,1,2.78,1.25l-1,1a2.15,2.15,0,0,0-1.7-.83A2.12,2.12,0,0,0,14.47,16a2.13,2.13,0,0,0,2.16,2.27,2.16,2.16,0,0,0,1.7-.84l1,1a3.39,3.39,0,0,1-2.79,1.26A3.55,3.55,0,0,1,12.89,16Z"/><ellipse id="circle14" class="cls-1" cx="12.23" cy="12.46" rx="10.73" ry="10.96"/></g></g></g></g></svg>