<svg xmlns="http://www.w3.org/2000/svg" viewBox="0 0 512 512">
    <defs>
        <style>
            .cls-1 {
                fill: #f7f9f9;
            }
        </style>
    </defs>
    <g id="Layer_2" data-name="Layer 2">
        <g id="Layer_1-2" data-name="Layer 1">
            <path class="cls-1"
                d="M160,423H90V197h70Zm7-298a41,41,0,1,0-41,41A41.06,41.06,0,0,0,167,125ZM422,298.7C422,238,409.2,193,338.3,193c-34.1,0-56.9,17-66.2,34.7H272V197H204V423h68V310.8c0-29.4,7.5-57.9,43.9-57.9,35.9,0,37.1,33.6,37.1,59.7V423h69ZM512,452V60A60,60,0,0,0,452,0H60A60,60,0,0,0,0,60V452a60,60,0,0,0,60,60H452A60,60,0,0,0,512,452ZM452,40a20.06,20.06,0,0,1,20,20V452a20.06,20.06,0,0,1-20,20H60a20.06,20.06,0,0,1-20-20V60A20.06,20.06,0,0,1,60,40Z" />
        </g>
    </g>
</svg>