<svg xmlns="http://www.w3.org/2000/svg" viewBox="0 0 173 173"><defs><style>.cls-1,.cls-2{fill:#70798c;}.cls-1,.cls-3{stroke:#9bd0f1;stroke-miterlimit:10;stroke-width:3px;}.cls-3{fill:none;}</style></defs><title>Asset 1</title><g id="Layer_2" data-name="Layer 2"><g id="Layer_1-2" data-name="Layer 1"><line class="cls-1" x1="49.96" y1="135.44" x2="127.04" y2="43.56"/><path class="cls-2" d="M81.12,34V85.8H71.27L45.45,54.36V85.8H33.61V34h9.92L69.28,65.46V34Z"/><path class="cls-2" d="M91.78,114.17c0-16.54,12.39-28.37,29.05-28.37,9.25,0,17,3.45,22,9.72l-8,7.52a17,17,0,0,0-13.45-6.42c-10,0-17.12,7.2-17.12,17.55s7.11,17.55,17.12,17.55a16.89,16.89,0,0,0,13.45-6.51l8,7.53c-5,6.34-12.76,9.79-22.09,9.79C104.17,142.53,91.78,130.7,91.78,114.17Z"/><circle class="cls-3" cx="86.5" cy="86.5" r="85"/></g></g></svg>